<svg xmlns="http://www.w3.org/2000/svg" width="1200" height="300" viewBox="0 0 1200 300" role="img" aria-labelledby="title desc">
  <title id="title">Bhavya Vashisht — backend and AI systems</title>
  <desc id="desc">Dark technical header with a green cursor and a small connected-node diagram. Build, debug, measure.</desc>
  <defs>
    <pattern id="grid" width="32" height="32" patternUnits="userSpaceOnUse"><path d="M32 0H0V32" fill="none" stroke="#263345" stroke-width="0.6"/></pattern>
    <linearGradient id="fade"><stop stop-color="#101820"/><stop offset="1" stop-color="#162635"/></linearGradient>
  </defs>
  <rect width="1200" height="300" rx="18" fill="url(#fade)"/>
  <rect x="740" width="460" height="300" rx="18" fill="url(#grid)"/>
  <path d="M840 94H932V150H1040V218H1136M840 218H892V150H932M1040 150V78H1136" fill="none" stroke="#47627b" stroke-width="2"/>
  <g fill="#101820" stroke="#8de6b0" stroke-width="2">
    <circle cx="840" cy="94" r="7"/><circle cx="840" cy="218" r="7"/>
    <circle cx="932" cy="150" r="11"/><circle cx="1040" cy="150" r="7"/>
    <circle cx="1136" cy="78" r="7"/><circle cx="1136" cy="218" r="7"/>
  </g>
  <g font-family="ui-monospace, SFMono-Regular, Consolas, monospace">
    <text x="54" y="61" fill="#8de6b0" font-size="15" letter-spacing="2">~/BHAVYAV29</text>
    <text x="52" y="139" fill="#f0f5fa" font-size="55" font-weight="700" letter-spacing="-2">Bhavya Vashisht</text>
    <text x="55" y="187" fill="#aebfd0" font-size="21">backend + AI systems</text>
    <text x="55" y="253" fill="#8de6b0" font-size="15" letter-spacing="1">build. debug. measure.</text>
    <rect x="284" y="239" width="9" height="17" fill="#8de6b0"/>
  </g>
</svg>
